<svg xmlns:xlink="http://www.w3.org/1999/xlink" id="wave" style="transform:rotate(180deg); transition: 0.3s" viewBox="0 0 1440 190" version="1.1" xmlns="http://www.w3.org/2000/svg"><defs><linearGradient id="sw-gradient-0" x1="0" x2="0" y1="1" y2="0"><stop stop-color="rgba(255, 255, 255, 1)" offset="0%"/><stop stop-color="rgba(255, 255, 255, 1)" offset="100%"/></linearGradient></defs><path style="transform:translate(0, 0px); opacity:1" fill="url(#sw-gradient-0)" d="M0,152L40,139.3C80,127,160,101,240,76C320,51,400,25,480,22.2C560,19,640,38,720,57C800,76,880,95,960,107.7C1040,120,1120,127,1200,129.8C1280,133,1360,133,1440,136.2C1520,139,1600,146,1680,152C1760,158,1840,165,1920,164.7C2000,165,2080,158,2160,145.7C2240,133,2320,114,2400,101.3C2480,89,2560,82,2640,76C2720,70,2800,63,2880,66.5C2960,70,3040,82,3120,95C3200,108,3280,120,3360,129.8C3440,139,3520,146,3600,142.5C3680,139,3760,127,3840,101.3C3920,76,4000,38,4080,38C4160,38,4240,76,4320,79.2C4400,82,4480,51,4560,50.7C4640,51,4720,82,4800,98.2C4880,114,4960,114,5040,120.3C5120,127,5200,139,5280,142.5C5360,146,5440,139,5520,117.2C5600,95,5680,57,5720,38L5760,19L5760,190L5720,190C5680,190,5600,190,5520,190C5440,190,5360,190,5280,190C5200,190,5120,190,5040,190C4960,190,4880,190,4800,190C4720,190,4640,190,4560,190C4480,190,4400,190,4320,190C4240,190,4160,190,4080,190C4000,190,3920,190,3840,190C3760,190,3680,190,3600,190C3520,190,3440,190,3360,190C3280,190,3200,190,3120,190C3040,190,2960,190,2880,190C2800,190,2720,190,2640,190C2560,190,2480,190,2400,190C2320,190,2240,190,2160,190C2080,190,2000,190,1920,190C1840,190,1760,190,1680,190C1600,190,1520,190,1440,190C1360,190,1280,190,1200,190C1120,190,1040,190,960,190C880,190,800,190,720,190C640,190,560,190,480,190C400,190,320,190,240,190C160,190,80,190,40,190L0,190Z"/></svg>